<?xml version="1.0" encoding="UTF-8"?>
<!DOCTYPE svg PUBLIC "-//W3C//DTD SVG 1.1//EN" "http://www.w3.org/Graphics/SVG/1.1/DTD/svg11.dtd">
<svg version="1.2" width="360mm" height="120mm" viewBox="0 0 36000 12000" preserveAspectRatio="xMidYMid" fill-rule="evenodd" stroke-width="28.222" stroke-linejoin="round" xmlns="http://www.w3.org/2000/svg" xmlns:ooo="http://xml.openoffice.org/svg/export" xmlns:xlink="http://www.w3.org/1999/xlink" xmlns:presentation="http://sun.com/xmlns/staroffice/presentation" xmlns:smil="http://www.w3.org/2001/SMIL20/" xmlns:anim="urn:oasis:names:tc:opendocument:xmlns:animation:1.0" xmlns:svg="urn:oasis:names:tc:opendocument:xmlns:svg-compatible:1.0" xml:space="preserve">
 <defs class="ClipPathGroup">
  <clipPath id="presentation_clip_path" clipPathUnits="userSpaceOnUse">
   <rect x="0" y="0" width="36000" height="12000"/>
  </clipPath>
  <clipPath id="presentation_clip_path_shrink" clipPathUnits="userSpaceOnUse">
   <rect x="36" y="12" width="35928" height="11976"/>
  </clipPath>
 </defs>
 <defs class="TextShapeIndex">
  <g ooo:slide="id1" ooo:id-list="id3 id4 id5 id6 id7 id8 id9 id10 id11 id12 id13 id14 id15 id16 id17 id18 id19 id20 id21 id22 id23 id24 id25 id26 id27 id28 id29 id30 id31 id32 id33"/>
 </defs>
 <defs class="EmbeddedBulletChars">
  <g id="bullet-char-template-57356" transform="scale(0.00048828125,-0.00048828125)">
   <path d="M 580,1141 L 1163,571 580,0 -4,571 580,1141 Z"/>
  </g>
  <g id="bullet-char-template-57354" transform="scale(0.00048828125,-0.00048828125)">
   <path d="M 8,1128 L 1137,1128 1137,0 8,0 8,1128 Z"/>
  </g>
  <g id="bullet-char-template-10146" transform="scale(0.00048828125,-0.00048828125)">
   <path d="M 174,0 L 602,739 174,1481 1456,739 174,0 Z M 1358,739 L 309,1346 659,739 1358,739 Z"/>
  </g>
  <g id="bullet-char-template-10132" transform="scale(0.00048828125,-0.00048828125)">
   <path d="M 2015,739 L 1276,0 717,0 1260,543 174,543 174,936 1260,936 717,1481 1274,1481 2015,739 Z"/>
  </g>
  <g id="bullet-char-template-10007" transform="scale(0.00048828125,-0.00048828125)">
   <path d="M 0,-2 C -7,14 -16,27 -25,37 L 356,567 C 262,823 215,952 215,954 215,979 228,992 255,992 264,992 276,990 289,987 310,991 331,999 354,1012 L 381,999 492,748 772,1049 836,1024 860,1049 C 881,1039 901,1025 922,1006 886,937 835,863 770,784 769,783 710,716 594,584 L 774,223 C 774,196 753,168 711,139 L 727,119 C 717,90 699,76 672,76 641,76 570,178 457,381 L 164,-76 C 142,-110 111,-127 72,-127 30,-127 9,-110 8,-76 1,-67 -2,-52 -2,-32 -2,-23 -1,-13 0,-2 Z"/>
  </g>
  <g id="bullet-char-template-10004" transform="scale(0.00048828125,-0.00048828125)">
   <path d="M 285,-33 C 182,-33 111,30 74,156 52,228 41,333 41,471 41,549 55,616 82,672 116,743 169,778 240,778 293,778 328,747 346,684 L 369,508 C 377,444 397,411 428,410 L 1163,1116 C 1174,1127 1196,1133 1229,1133 1271,1133 1292,1118 1292,1087 L 1292,965 C 1292,929 1282,901 1262,881 L 442,47 C 390,-6 338,-33 285,-33 Z"/>
  </g>
  <g id="bullet-char-template-9679" transform="scale(0.00048828125,-0.00048828125)">
   <path d="M 813,0 C 632,0 489,54 383,161 276,268 223,411 223,592 223,773 276,916 383,1023 489,1130 632,1184 813,1184 992,1184 1136,1130 1245,1023 1353,916 1407,772 1407,592 1407,412 1353,268 1245,161 1136,54 992,0 813,0 Z"/>
  </g>
  <g id="bullet-char-template-8226" transform="scale(0.00048828125,-0.00048828125)">
   <path d="M 346,457 C 273,457 209,483 155,535 101,586 74,649 74,723 74,796 101,859 155,911 209,963 273,989 346,989 419,989 480,963 531,910 582,859 608,796 608,723 608,648 583,586 532,535 482,483 420,457 346,457 Z"/>
  </g>
  <g id="bullet-char-template-8211" transform="scale(0.00048828125,-0.00048828125)">
   <path d="M -4,459 L 1135,459 1135,606 -4,606 -4,459 Z"/>
  </g>
  <g id="bullet-char-template-61548" transform="scale(0.00048828125,-0.00048828125)">
   <path d="M 173,740 C 173,903 231,1043 346,1159 462,1274 601,1332 765,1332 928,1332 1067,1274 1183,1159 1299,1043 1357,903 1357,740 1357,577 1299,437 1183,322 1067,206 928,148 765,148 601,148 462,206 346,322 231,437 173,577 173,740 Z"/>
  </g>
 </defs>
 <g>
  <g id="id2" class="Master_Slide">
   <g id="bg-id2" class="Background"/>
   <g id="bo-id2" class="BackgroundObjects"/>
  </g>
 </g>
 <g class="SlideGroup">
  <g>
   <g id="container-id1">
    <g id="id1" class="Slide" clip-path="url(#presentation_clip_path)">
     <g class="Page">
      <g class="Group">
       <g class="com.sun.star.drawing.CustomShape">
        <g id="id3">
         <rect class="BoundingBox" stroke="none" fill="none" x="1500" y="1000" width="10002" height="10002"/>
         <path fill="rgb(237,27,48)" stroke="none" d="M 11501,6001 C 11501,6878 11270,7741 10831,8501 10392,9261 9761,9892 9001,10331 8241,10770 7378,11001 6501,11001 5623,11001 4760,10770 4000,10331 3240,9892 2609,9261 2170,8501 1731,7741 1500,6878 1500,6001 1500,5123 1731,4260 2170,3500 2609,2740 3240,2109 4000,1670 4760,1231 5623,1000 6500,1000 7378,1000 8241,1231 9001,1670 9761,2109 10392,2740 10831,3500 11270,4260 11501,5123 11501,6000 L 11501,6001 Z "/>
        </g>
       </g>
       <g class="com.sun.star.drawing.PolyPolygonShape">
        <g id="id4">
         <rect class="BoundingBox" stroke="none" fill="none" x="1780" y="3003" width="7023" height="6419"/>
         <path fill="rgb(255,255,255)" stroke="none" d="M 1780,6246 L 8801,3003 6697,9421 1780,6246 Z "/>
        </g>
       </g>
       <g class="com.sun.star.drawing.PolyPolygonShape">
        <g id="id5">
         <rect class="BoundingBox" stroke="none" fill="none" x="8191" y="4032" width="2284" height="4744"/>
         <path fill="rgb(255,255,255)" stroke="none" d="M 9705,5273 L 9647,5260 9593,5243 9567,5232 9543,5221 9520,5208 9497,5194 9476,5178 9456,5162 9437,5145 9419,5126 9402,5106 9386,5085 9371,5063 9357,5040 9344,5015 9333,4990 9323,4964 9315,4938 9309,4910 9304,4882 9301,4853 9300,4823 9299,4793 9301,4761 9309,4696 9323,4627 9343,4556 9368,4487 9397,4423 9429,4363 9464,4309 9504,4259 9547,4213 9593,4172 9643,4136 9695,4105 9748,4080 9802,4060 9857,4045 9912,4036 9968,4033 10025,4035 10083,4042 10141,4055 10168,4063 10194,4073 10219,4083 10243,4095 10266,4108 10288,4122 10309,4137 10328,4153 10347,4170 10364,4189 10380,4208 10395,4229 10409,4251 10422,4274 10434,4298 10444,4323 10453,4349 10460,4375 10466,4402 10470,4430 10472,4458 10474,4488 10471,4548 10463,4612 10449,4679 10429,4748 10404,4819 10375,4885 10344,4946 10309,5002 10270,5053 10229,5100 10184,5141 10136,5178 10085,5209 10034,5235 9982,5255 9955,5263 9928,5270 9901,5275 9874,5279 9819,5283 9762,5281 9705,5273 Z M 8597,8765 L 8539,8752 8485,8735 8460,8724 8435,8712 8412,8700 8390,8686 8368,8670 8348,8654 8329,8636 8311,8618 8294,8598 8278,8577 8263,8555 8249,8532 8236,8507 8225,8482 8216,8456 8208,8430 8201,8402 8197,8374 8193,8345 8192,8315 8192,8284 8193,8253 8201,8188 8215,8119 8235,8048 8260,7979 8289,7915 8321,7855 8357,7801 8396,7750 8439,7705 8485,7664 8535,7628 8588,7597 8641,7572 8695,7552 8749,7537 8804,7528 8861,7525 8917,7527 8975,7534 9033,7547 9060,7555 9086,7565 9111,7575 9135,7587 9158,7600 9180,7613 9201,7629 9220,7645 9239,7662 9256,7681 9272,7700 9288,7721 9302,7743 9315,7766 9326,7790 9336,7815 9345,7841 9352,7867 9358,7894 9362,7922 9365,7950 9366,7980 9364,8040 9356,8104 9341,8171 9321,8240 9296,8311 9268,8377 9236,8438 9201,8494 9163,8545 9121,8592 9076,8633 9028,8670 8978,8701 8926,8727 8874,8747 8848,8755 8821,8762 8794,8767 8766,8771 8711,8775 8654,8773 8597,8765 Z "/>
        </g>
       </g>
      </g>
      <g class="Group">
       <g class="Group">
        <g class="com.sun.star.drawing.ClosedBezierShape">
         <g id="id6">
          <rect class="BoundingBox" stroke="none" fill="none" x="12500" y="1741" width="3942" height="7012"/>
          <path fill="rgb(0,96,163)" stroke="none" d="M 15975,7092 C 15795,7657 15545,8074 15226,8345 14907,8616 14505,8752 14019,8752 13370,8752 12931,8468 12703,7901 12474,7333 12439,6454 12597,5263 12761,4050 13040,3159 13435,2592 13830,2025 14352,1741 15002,1741 15425,1741 15750,1875 15975,2143 16201,2411 16356,2751 16441,3163 L 15569,3350 C 15529,3113 15455,2926 15344,2791 15234,2655 15089,2588 14908,2588 14638,2588 14416,2682 14244,2871 14072,3060 13930,3351 13820,3743 13710,4136 13607,4642 13511,5263 13370,6178 13348,6854 13444,7291 13540,7729 13785,7947 14180,7947 14395,7947 14581,7864 14739,7698 14897,7531 15038,7287 15162,6965 L 15975,7092 Z "/>
         </g>
        </g>
        <g class="com.sun.star.drawing.ClosedBezierShape">
         <g id="id7">
          <rect class="BoundingBox" stroke="none" fill="none" x="16229" y="1791" width="1833" height="6878"/>
          <path fill="rgb(0,96,163)" stroke="none" d="M 17457,2943 C 17299,2943 17180,2890 17101,2782 17022,2675 16994,2537 17017,2368 17045,2204 17107,2067 17203,1957 17299,1847 17434,1792 17609,1792 17773,1792 17894,1847 17973,1957 18052,2067 18078,2204 18050,2368 18027,2537 17966,2675 17868,2782 17769,2890 17632,2943 17457,2943 Z M 17050,8667 L 16229,8667 16957,3502 17779,3502 17050,8667 Z "/>
         </g>
        </g>
        <g class="com.sun.star.drawing.ClosedBezierShape">
         <g id="id8">
          <rect class="BoundingBox" stroke="none" fill="none" x="18108" y="2079" width="2415" height="6677"/>
          <path fill="rgb(0,96,163)" stroke="none" d="M 18202,7168 L 18659,4247 18109,4247 18219,3502 18778,3502 18998,2080 19777,2080 19565,3502 20522,3502 20412,4247 19447,4247 19023,7075 C 18978,7386 18977,7616 19019,7765 19061,7915 19161,7990 19320,7990 19455,7990 19599,7936 19751,7829 L 20014,8523 C 19839,8602 19657,8664 19468,8709 19279,8754 19097,8766 18922,8743 18747,8721 18596,8654 18469,8544 18342,8434 18251,8268 18198,8045 18144,7822 18145,7530 18202,7168 Z "/>
         </g>
        </g>
        <g class="com.sun.star.drawing.ClosedBezierShape">
         <g id="id9">
          <rect class="BoundingBox" stroke="none" fill="none" x="19785" y="3502" width="4261" height="6945"/>
          <path fill="rgb(0,96,163)" stroke="none" d="M 22283,8447 C 22114,8927 21954,9313 21804,9607 21655,9900 21484,10113 21292,10246 21100,10379 20855,10445 20556,10445 20431,10445 20307,10435 20183,10415 20059,10396 19926,10360 19785,10310 L 19904,9581 C 20005,9610 20104,9634 20200,9653 20296,9673 20395,9683 20496,9683 20688,9683 20849,9612 20979,9471 21109,9330 21208,9150 21275,8929 L 20716,3502 21555,3502 21783,6686 C 21795,6855 21804,7024 21813,7194 21821,7363 21828,7532 21834,7702 21891,7532 21946,7363 21999,7194 22053,7024 22108,6855 22164,6686 L 23197,3502 24044,3502 22283,8447 Z "/>
         </g>
        </g>
        <g class="com.sun.star.drawing.ClosedBezierShape">
         <g id="id10">
          <rect class="BoundingBox" stroke="none" fill="none" x="23603" y="3417" width="3202" height="5336"/>
          <path fill="rgb(0,96,163)" stroke="none" d="M 24374,7304 C 24385,7530 24455,7702 24582,7820 24709,7939 24854,7998 25018,7998 25147,7998 25267,7957 25377,7875 25488,7794 25557,7657 25585,7465 25619,7278 25602,7109 25534,6957 25466,6804 25369,6659 25242,6521 25115,6382 24979,6244 24836,6106 24692,5967 24560,5819 24442,5661 24323,5503 24237,5324 24184,5124 24130,4923 24131,4696 24188,4442 24239,4199 24333,4003 24471,3854 24610,3704 24773,3594 24963,3523 25152,3453 25345,3417 25543,3417 25768,3417 25981,3467 26182,3566 26382,3664 26542,3818 26660,4027 26779,4236 26824,4507 26796,4840 L 26068,4840 C 26079,4597 26031,4421 25924,4311 25816,4201 25689,4146 25543,4146 25424,4146 25315,4179 25217,4247 25118,4315 25051,4439 25018,4620 24989,4767 25011,4906 25081,5039 25152,5172 25248,5303 25369,5433 25490,5562 25622,5698 25763,5839 25904,5980 26034,6133 26152,6296 26271,6460 26360,6641 26419,6838 26478,7036 26485,7261 26440,7515 26395,7792 26296,8022 26144,8206 25991,8389 25811,8526 25602,8616 25393,8707 25176,8752 24950,8752 24718,8752 24500,8701 24294,8599 24088,8498 23921,8342 23794,8134 23667,7925 23604,7659 23604,7338 L 24374,7304 Z "/>
         </g>
        </g>
        <g class="com.sun.star.drawing.ClosedBezierShape">
         <g id="id11">
          <rect class="BoundingBox" stroke="none" fill="none" x="26950" y="3502" width="3403" height="5251"/>
          <path fill="rgb(0,96,163)" stroke="none" d="M 29530,3502 L 30352,3502 29615,8667 28845,8667 28887,8167 C 28746,8376 28589,8526 28417,8616 28245,8707 28077,8752 27913,8752 27710,8752 27528,8702 27367,8604 27206,8505 27089,8344 27016,8121 26942,7898 26931,7600 26982,7228 L 27507,3502 28337,3502 27820,7092 C 27735,7690 27879,7990 28252,7990 28432,7990 28591,7905 28726,7736 28861,7566 28960,7349 29022,7084 L 29530,3502 Z "/>
         </g>
        </g>
        <g class="com.sun.star.drawing.ClosedBezierShape">
         <g id="id12">
          <rect class="BoundingBox" stroke="none" fill="none" x="30376" y="1554" width="3513" height="7199"/>
          <path fill="rgb(0,96,163)" stroke="none" d="M 31147,8667 L 30377,8667 31385,1555 32206,1555 31876,3866 C 32118,3567 32415,3417 32765,3417 33194,3417 33504,3636 33696,4074 33888,4511 33936,5156 33840,6008 33778,6539 33669,7012 33514,7427 33359,7841 33158,8166 32913,8400 32667,8635 32381,8752 32053,8752 31675,8752 31404,8580 31241,8235 L 31147,8667 Z M 32528,4180 C 32336,4180 32171,4253 32032,4400 31894,4546 31791,4741 31723,4984 L 31418,7075 C 31407,7341 31454,7559 31558,7731 31663,7904 31808,7990 31994,7990 32186,7990 32346,7902 32473,7727 32600,7552 32705,7321 32790,7033 32875,6745 32940,6432 32985,6093 33041,5715 33065,5382 33057,5094 33048,4806 33003,4582 32921,4421 32839,4260 32708,4180 32528,4180 Z "/>
         </g>
        </g>
        <g class="com.sun.star.drawing.ClosedBezierShape">
         <g id="id13">
          <rect class="BoundingBox" stroke="none" fill="none" x="22273" y="9388" width="607" height="1058"/>
          <path fill="rgb(0,96,163)" stroke="none" d="M 22810,10178 C 22782,10273 22744,10341 22695,10382 22646,10424 22584,10445 22510,10445 22408,10445 22340,10401 22305,10314 22270,10227 22264,10095 22288,9917 22312,9737 22354,9604 22414,9518 22474,9432 22554,9389 22654,9389 22720,9389 22771,9410 22806,9452 22842,9493 22866,9550 22879,9620 L 22727,9650 C 22720,9611 22709,9582 22695,9565 22681,9547 22663,9538 22640,9538 22604,9538 22575,9551 22551,9577 22528,9603 22508,9644 22493,9700 22477,9756 22462,9830 22448,9921 22427,10054 22423,10151 22437,10211 22450,10271 22482,10302 22533,10302 22561,10302 22585,10290 22607,10268 22628,10245 22649,10208 22669,10156 L 22810,10178 Z "/>
         </g>
        </g>
        <g class="com.sun.star.drawing.ClosedBezierShape">
         <g id="id14">
          <rect class="BoundingBox" stroke="none" fill="none" x="22932" y="9388" width="625" height="1058"/>
          <path fill="rgb(0,96,163)" stroke="none" d="M 23178,10445 C 23070,10445 22998,10401 22964,10314 22929,10227 22924,10095 22947,9917 22971,9737 23013,9604 23073,9518 23133,9432 23212,9389 23310,9389 23420,9389 23491,9432 23526,9519 23560,9606 23565,9740 23540,9921 23517,10098 23475,10229 23416,10316 23356,10402 23277,10445 23178,10445 Z M 23190,10302 C 23242,10302 23281,10271 23308,10210 23336,10148 23360,10051 23380,9917 23401,9782 23405,9684 23393,9624 23380,9563 23349,9532 23300,9532 23248,9532 23208,9563 23180,9625 23152,9687 23128,9786 23107,9921 23087,10054 23083,10151 23097,10211 23111,10271 23142,10302 23190,10302 Z "/>
         </g>
        </g>
        <g class="com.sun.star.drawing.ClosedBezierShape">
         <g id="id15">
          <rect class="BoundingBox" stroke="none" fill="none" x="23631" y="9401" width="721" height="1033"/>
          <path fill="rgb(0,96,163)" stroke="none" d="M 23778,10432 L 23631,10432 23774,9401 23945,9401 24116,10168 C 24118,10177 24121,10188 24124,10201 24127,10214 24124,10225 24115,10233 24112,10212 24112,10190 24115,10166 L 24204,9401 24351,9401 24208,10432 24040,10432 23884,9740 C 23880,9722 23875,9697 23869,9665 23862,9634 23863,9608 23869,9589 23873,9612 23873,9637 23870,9666 23867,9695 23864,9720 23861,9739 L 23778,10432 Z "/>
         </g>
        </g>
        <g class="com.sun.star.drawing.ClosedBezierShape">
         <g id="id16">
          <rect class="BoundingBox" stroke="none" fill="none" x="24434" y="9401" width="577" height="1033"/>
          <path fill="rgb(0,96,163)" stroke="none" d="M 24663,10432 C 24613,10432 24564,10432 24514,10432 24556,10136 24597,9841 24639,9545 24570,9545 24502,9545 24434,9545 24440,9497 24445,9449 24451,9401 24637,9401 24823,9401 25009,9401 25003,9449 24997,9497 24991,9545 24923,9545 24855,9545 24787,9545 24746,9841 24704,10136 24663,10432 Z "/>
         </g>
        </g>
        <g class="com.sun.star.drawing.ClosedBezierShape">
         <g id="id17">
          <rect class="BoundingBox" stroke="none" fill="none" x="24964" y="9401" width="629" height="1033"/>
          <path fill="rgb(0,96,163)" stroke="none" d="M 25113,10432 L 24964,10432 25106,9401 25298,9401 C 25404,9401 25481,9428 25531,9481 25580,9534 25599,9607 25588,9699 25579,9762 25554,9816 25514,9861 25474,9906 25425,9936 25369,9953 L 25513,10432 25357,10432 25225,9975 C 25228,9975 25228,9975 25224,9975 L 25177,9975 25113,10432 Z M 25294,9543 L 25238,9543 25196,9832 25224,9832 C 25289,9832 25338,9819 25371,9792 25403,9765 25423,9726 25429,9677 25435,9636 25427,9604 25404,9580 25380,9556 25344,9543 25294,9543 Z "/>
         </g>
        </g>
        <g class="com.sun.star.drawing.ClosedBezierShape">
         <g id="id18">
          <rect class="BoundingBox" stroke="none" fill="none" x="25660" y="9388" width="625" height="1058"/>
          <path fill="rgb(0,96,163)" stroke="none" d="M 25906,10445 C 25798,10445 25726,10401 25692,10314 25657,10227 25652,10095 25675,9917 25699,9737 25741,9604 25801,9518 25861,9432 25940,9389 26038,9389 26147,9389 26219,9432 26254,9519 26288,9606 26293,9740 26268,9921 26245,10098 26203,10229 26144,10316 26084,10402 26005,10445 25906,10445 Z M 25918,10302 C 25970,10302 26009,10271 26036,10210 26064,10148 26088,10051 26108,9917 26129,9782 26133,9684 26121,9624 26108,9563 26077,9532 26028,9532 25976,9532 25936,9563 25908,9625 25880,9687 25856,9786 25835,9921 25815,10054 25811,10151 25825,10211 25838,10271 25870,10302 25918,10302 Z "/>
         </g>
        </g>
        <g class="com.sun.star.drawing.ClosedBezierShape">
         <g id="id19">
          <rect class="BoundingBox" stroke="none" fill="none" x="26359" y="9401" width="461" height="1033"/>
          <path fill="rgb(0,96,163)" stroke="none" d="M 26819,10289 C 26813,10337 26807,10385 26801,10432 26654,10432 26506,10432 26359,10432 26407,10089 26454,9745 26502,9401 26551,9401 26601,9401 26651,9401 26609,9697 26568,9993 26526,10289 26624,10289 26721,10289 26819,10289 Z "/>
         </g>
        </g>
        <g class="com.sun.star.drawing.ClosedBezierShape">
         <g id="id20">
          <rect class="BoundingBox" stroke="none" fill="none" x="26924" y="9401" width="462" height="1033"/>
          <path fill="rgb(0,96,163)" stroke="none" d="M 27384,10289 C 27378,10337 27372,10385 27366,10432 27219,10432 27072,10432 26925,10432 26972,10089 27020,9745 27067,9401 27117,9401 27166,9401 27216,9401 27174,9697 27133,9993 27091,10289 27189,10289 27287,10289 27384,10289 Z "/>
         </g>
        </g>
        <g class="com.sun.star.drawing.ClosedBezierShape">
         <g id="id21">
          <rect class="BoundingBox" stroke="none" fill="none" x="27490" y="9401" width="293" height="1033"/>
          <path fill="rgb(0,96,163)" stroke="none" d="M 27639,10432 C 27589,10432 27540,10432 27490,10432 27538,10089 27585,9745 27632,9401 27682,9401 27732,9401 27781,9401 27734,9745 27686,10089 27639,10432 Z "/>
         </g>
        </g>
        <g class="com.sun.star.drawing.ClosedBezierShape">
         <g id="id22">
          <rect class="BoundingBox" stroke="none" fill="none" x="27818" y="9401" width="721" height="1033"/>
          <path fill="rgb(0,96,163)" stroke="none" d="M 27965,10432 L 27818,10432 27960,9401 28132,9401 28303,10168 C 28305,10177 28308,10188 28311,10201 28314,10214 28311,10225 28302,10233 28299,10212 28299,10190 28301,10166 L 28391,9401 28538,9401 28395,10432 28227,10432 28071,9740 C 28067,9722 28062,9697 28055,9665 28049,9634 28049,9608 28056,9589 28060,9612 28060,9637 28057,9666 28053,9695 28050,9720 28048,9739 L 27965,10432 Z "/>
         </g>
        </g>
        <g class="com.sun.star.drawing.ClosedBezierShape">
         <g id="id23">
          <rect class="BoundingBox" stroke="none" fill="none" x="28614" y="9388" width="607" height="1058"/>
          <path fill="rgb(0,96,163)" stroke="none" d="M 28788,9921 C 28768,10054 28764,10151 28777,10211 28790,10271 28823,10302 28874,10302 28897,10302 28920,10293 28942,10275 28964,10257 28983,10232 29000,10200 29016,10169 29028,10134 29036,10095 L 29049,10013 28906,10013 28922,9868 29212,9868 29135,10432 29008,10432 29026,10305 C 29016,10346 28991,10379 28953,10406 28915,10432 28874,10445 28829,10445 28742,10445 28681,10401 28646,10314 28611,10227 28605,10095 28628,9917 28652,9737 28694,9604 28754,9518 28814,9432 28894,9389 28994,9389 29041,9389 29080,9400 29111,9421 29141,9442 29165,9469 29183,9502 29200,9535 29212,9575 29219,9620 L 29067,9650 C 29060,9611 29050,9582 29036,9565 29021,9547 29003,9538 28981,9538 28945,9538 28915,9551 28892,9577 28868,9603 28849,9644 28833,9700 28817,9756 28802,9830 28788,9921 Z "/>
         </g>
        </g>
        <g class="com.sun.star.drawing.ClosedBezierShape">
         <g id="id24">
          <rect class="BoundingBox" stroke="none" fill="none" x="29603" y="9401" width="588" height="1033"/>
          <path fill="rgb(0,96,163)" stroke="none" d="M 29604,10432 L 29746,9401 29923,9401 C 29982,9401 30033,9413 30075,9437 30117,9461 30148,9493 30168,9534 30187,9575 30194,9623 30187,9675 30173,9782 30118,9850 30022,9880 30063,9889 30096,9907 30121,9935 30146,9964 30163,9995 30171,10030 30178,10064 30180,10100 30175,10137 30164,10226 30126,10298 30061,10351 29996,10405 29908,10432 29797,10432 L 29604,10432 Z M 29909,9538 L 29877,9538 29837,9810 29877,9810 C 29920,9810 29955,9797 29982,9773 30008,9748 30024,9715 30029,9675 30036,9630 30029,9596 30008,9573 29987,9550 29954,9538 29909,9538 Z M 29834,9953 L 29819,9953 29770,10290 29812,10290 C 29865,10290 29911,10277 29949,10250 29986,10223 30009,10183 30017,10130 30024,10078 30013,10036 29984,10003 29954,9970 29904,9953 29834,9953 Z "/>
         </g>
        </g>
        <g class="com.sun.star.drawing.ClosedBezierShape">
         <g id="id25">
          <rect class="BoundingBox" stroke="none" fill="none" x="30306" y="9388" width="625" height="1058"/>
          <path fill="rgb(0,96,163)" stroke="none" d="M 30551,10445 C 30443,10445 30372,10401 30337,10314 30303,10227 30297,10095 30320,9917 30345,9737 30387,9604 30447,9518 30507,9432 30586,9389 30683,9389 30793,9389 30865,9432 30899,9519 30933,9606 30938,9740 30914,9921 30891,10098 30849,10229 30789,10316 30730,10402 30650,10445 30551,10445 Z M 30564,10302 C 30615,10302 30655,10271 30682,10210 30709,10148 30733,10051 30754,9917 30775,9782 30779,9684 30766,9624 30754,9563 30723,9532 30673,9532 30622,9532 30582,9563 30554,9625 30526,9687 30501,9786 30481,9921 30460,10054 30457,10151 30470,10211 30484,10271 30515,10302 30564,10302 Z "/>
         </g>
        </g>
        <g class="com.sun.star.drawing.ClosedBezierShape">
         <g id="id26">
          <rect class="BoundingBox" stroke="none" fill="none" x="31036" y="9401" width="625" height="1045"/>
          <path fill="rgb(0,96,163)" stroke="none" d="M 31424,10028 L 31513,9401 31660,9401 31566,10083 C 31548,10208 31515,10300 31466,10358 31417,10416 31348,10445 31258,10445 31165,10445 31102,10415 31069,10356 31036,10297 31029,10205 31046,10079 L 31141,9401 31289,9401 31200,10043 C 31187,10136 31187,10202 31199,10241 31212,10280 31236,10299 31272,10299 31311,10299 31342,10279 31366,10239 31390,10199 31410,10129 31424,10028 Z "/>
         </g>
        </g>
        <g class="com.sun.star.drawing.ClosedBezierShape">
         <g id="id27">
          <rect class="BoundingBox" stroke="none" fill="none" x="31697" y="9401" width="721" height="1033"/>
          <path fill="rgb(0,96,163)" stroke="none" d="M 31844,10432 L 31697,10432 31840,9401 32011,9401 32182,10168 C 32184,10177 32187,10188 32190,10201 32193,10214 32190,10225 32181,10233 32178,10212 32178,10190 32181,10166 L 32270,9401 32417,9401 32274,10432 32106,10432 31950,9740 C 31946,9722 31941,9697 31935,9665 31928,9634 31929,9608 31935,9589 31939,9612 31939,9637 31936,9666 31933,9695 31930,9720 31927,9739 L 31844,10432 Z "/>
         </g>
        </g>
        <g class="com.sun.star.drawing.ClosedBezierShape">
         <g id="id28">
          <rect class="BoundingBox" stroke="none" fill="none" x="32461" y="9401" width="635" height="1033"/>
          <path fill="rgb(0,96,163)" stroke="none" d="M 32668,10432 L 32461,10432 32604,9401 32794,9401 C 32883,9401 32951,9423 32998,9468 33044,9512 33074,9573 33086,9652 33098,9731 33097,9824 33083,9932 33070,10032 33048,10119 33016,10194 32984,10269 32939,10328 32882,10370 32825,10411 32754,10432 32668,10432 Z M 32780,9541 L 32739,9541 32631,10293 32683,10293 C 32750,10293 32802,10262 32841,10200 32879,10139 32907,10047 32924,9924 32943,9791 32941,9694 32916,9633 32892,9572 32847,9541 32780,9541 Z "/>
         </g>
        </g>
        <g class="com.sun.star.drawing.ClosedBezierShape">
         <g id="id29">
          <rect class="BoundingBox" stroke="none" fill="none" x="33146" y="9388" width="608" height="1058"/>
          <path fill="rgb(0,96,163)" stroke="none" d="M 33291,10137 C 33293,10194 33304,10236 33324,10263 33344,10290 33371,10304 33404,10304 33429,10304 33452,10294 33472,10275 33493,10255 33507,10231 33515,10201 33525,10162 33524,10128 33513,10098 33502,10067 33485,10038 33462,10009 33440,9980 33415,9951 33388,9922 33361,9893 33336,9861 33314,9828 33291,9794 33276,9757 33267,9716 33258,9675 33259,9634 33272,9593 33288,9524 33318,9473 33363,9439 33408,9406 33462,9389 33524,9389 33600,9389 33659,9413 33700,9460 33742,9508 33759,9576 33751,9664 L 33608,9670 C 33611,9621 33604,9586 33589,9564 33574,9542 33552,9531 33521,9531 33497,9531 33476,9538 33459,9552 33442,9567 33430,9587 33424,9614 33416,9646 33418,9676 33429,9705 33440,9734 33457,9762 33478,9789 33500,9816 33524,9844 33550,9873 33577,9902 33601,9933 33624,9966 33647,9998 33663,10035 33673,10075 33684,10115 33683,10164 33671,10222 33663,10261 33646,10298 33619,10333 33592,10369 33559,10396 33520,10416 33482,10435 33439,10445 33393,10445 33314,10445 33253,10418 33209,10365 33164,10313 33144,10239 33146,10145 L 33291,10137 Z "/>
         </g>
        </g>
       </g>
       <g class="Group">
        <g class="com.sun.star.drawing.ClosedBezierShape">
         <g id="id30">
          <rect class="BoundingBox" stroke="none" fill="none" x="13332" y="9204" width="895" height="1236"/>
          <path fill="rgb(0,96,163)" stroke="none" d="M 13536,9586 L 13401,9586 13424,9348 13549,9348 C 13543,9337 13538,9322 13534,9301 13530,9280 13527,9257 13525,9233 L 13650,9215 C 13654,9245 13658,9270 13662,9291 13666,9313 13670,9331 13674,9348 L 13760,9348 13775,9204 13915,9204 13900,9348 13989,9348 C 14010,9309 14028,9264 14045,9215 L 14161,9246 C 14150,9288 14134,9322 14115,9348 L 14122,9348 C 14159,9348 14186,9357 14203,9376 14220,9396 14227,9421 14226,9453 L 14211,9586 14075,9586 14088,9467 13548,9467 13536,9586 Z M 14056,9596 L 14035,9788 13540,9788 13570,9492 13958,9492 C 13997,9492 14024,9502 14039,9521 14054,9540 14060,9565 14056,9596 Z M 13679,9674 L 13916,9674 13925,9608 13688,9608 13679,9674 Z M 13480,10269 L 13599,10244 C 13600,10270 13605,10289 13613,10300 13621,10311 13631,10316 13643,10316 13656,10316 13665,10313 13671,10308 13677,10302 13681,10289 13683,10270 L 13688,10235 13332,10235 13343,10118 13699,10118 13704,10086 13423,10086 13434,9969 13714,9969 13721,9929 C 13681,9932 13637,9935 13588,9937 13538,9939 13486,9941 13429,9943 L 13417,9825 C 13537,9822 13655,9817 13769,9809 13883,9801 13994,9791 14102,9779 L 14120,9892 C 14072,9899 14025,9905 13980,9910 13935,9914 13892,9918 13851,9921 L 13845,9969 14113,9969 14101,10086 13835,10086 13830,10118 14164,10118 14152,10235 13819,10235 13814,10285 C 13803,10387 13747,10438 13645,10438 13601,10438 13564,10426 13534,10400 13505,10375 13487,10331 13480,10269 Z "/>
         </g>
        </g>
        <g class="com.sun.star.drawing.ClosedBezierShape">
         <g id="id31">
          <rect class="BoundingBox" stroke="none" fill="none" x="14665" y="9204" width="955" height="1227"/>
          <path fill="rgb(0,96,163)" stroke="none" d="M 14666,10252 L 14779,10234 C 14781,10266 14783,10286 14785,10293 14787,10299 14787,10303 14785,10303 14784,10303 14784,10300 14786,10294 14788,10289 14790,10274 14793,10251 L 14824,9970 C 14804,9981 14772,9990 14729,10000 L 14711,9875 C 14738,9868 14762,9861 14781,9854 14801,9848 14820,9842 14837,9835 L 14866,9584 14775,9584 14788,9452 14879,9452 14905,9204 15032,9204 15006,9452 15079,9452 15066,9584 14993,9584 14969,9789 C 14973,9782 14990,9773 15021,9761 L 15052,9879 C 15016,9899 14984,9914 14956,9926 L 14919,10266 C 14913,10327 14898,10370 14872,10394 14847,10418 14819,10430 14787,10430 14750,10430 14720,10416 14700,10389 14679,10361 14668,10316 14666,10252 Z M 15196,9603 L 15064,9603 15089,9345 15283,9345 15297,9216 15431,9216 15418,9345 15515,9345 C 15553,9345 15580,9355 15597,9376 15615,9397 15621,9424 15618,9459 L 15603,9603 15473,9603 15486,9475 15208,9475 15196,9603 Z M 15422,9560 C 15463,9592 15497,9622 15526,9652 15554,9682 15582,9717 15611,9759 L 15519,9843 C 15487,9807 15458,9774 15430,9744 15403,9714 15373,9684 15338,9651 L 15422,9560 Z M 15124,9843 L 15046,9748 C 15082,9717 15116,9687 15147,9657 15178,9628 15208,9596 15237,9560 L 15329,9645 C 15298,9687 15267,9723 15235,9753 15203,9784 15166,9814 15124,9843 Z M 15531,10279 L 15518,10412 14972,10412 14984,10279 15195,10279 15224,10006 15056,10006 15068,9873 15537,9873 15525,10006 15360,10006 15331,10279 15531,10279 Z "/>
         </g>
        </g>
        <g class="com.sun.star.drawing.ClosedBezierShape">
         <g id="id32">
          <rect class="BoundingBox" stroke="none" fill="none" x="16056" y="9236" width="915" height="1210"/>
          <path fill="rgb(0,96,163)" stroke="none" d="M 16467,9913 L 16460,9987 C 16456,10023 16449,10061 16439,10099 16429,10138 16414,10177 16393,10217 16372,10258 16342,10297 16304,10335 16266,10373 16213,10410 16144,10445 L 16082,10333 C 16136,10300 16178,10270 16208,10242 16237,10214 16260,10187 16275,10159 16291,10131 16302,10102 16309,10073 16316,10043 16322,10013 16326,9982 L 16329,9975 C 16279,10026 16204,10072 16107,10111 L 16057,9994 C 16139,9958 16204,9922 16253,9886 16302,9850 16341,9817 16371,9786 L 16192,9786 16248,9237 16833,9237 C 16873,9237 16900,9248 16913,9271 16927,9293 16933,9319 16930,9347 L 16884,9786 16713,9786 C 16734,9818 16766,9854 16810,9893 16855,9932 16908,9966 16969,9995 L 16916,10108 C 16867,10087 16826,10065 16793,10042 16760,10019 16737,9995 16725,9973 L 16688,10435 16551,10435 16596,9913 16668,9913 C 16650,9902 16633,9883 16617,9858 16601,9832 16589,9808 16579,9786 L 16512,9786 C 16481,9839 16443,9882 16398,9913 L 16467,9913 Z M 16353,9456 L 16511,9456 16522,9366 16364,9366 16353,9456 Z M 16636,9456 L 16790,9456 16801,9366 16647,9366 16636,9456 Z M 16333,9656 L 16490,9656 16500,9571 16343,9571 16333,9656 Z M 16614,9656 L 16769,9656 16780,9571 16624,9571 16614,9656 Z "/>
         </g>
        </g>
        <g class="com.sun.star.drawing.ClosedBezierShape">
         <g id="id33">
          <rect class="BoundingBox" stroke="none" fill="none" x="17432" y="9244" width="922" height="1197"/>
          <path fill="rgb(0,96,163)" stroke="none" d="M 17873,9379 L 17755,9716 C 17774,9754 17787,9794 17794,9838 17801,9882 17802,9926 17797,9969 17792,10012 17780,10051 17762,10087 17744,10123 17719,10152 17688,10174 17658,10196 17624,10207 17587,10209 L 17563,10435 17433,10435 17556,9244 17792,9244 C 17831,9244 17858,9256 17872,9279 17887,9302 17887,9335 17873,9379 Z M 17742,10437 L 17705,10317 C 17742,10304 17770,10294 17790,10288 L 17898,9255 18249,9255 C 18279,9255 18305,9265 18326,9283 18347,9301 18355,9330 18351,9369 L 18299,9862 18111,9862 C 18113,9915 18120,9965 18132,10011 18144,9997 18160,9981 18179,9961 18199,9942 18221,9918 18245,9891 L 18325,9975 C 18299,10009 18273,10038 18248,10062 18223,10086 18197,10106 18171,10123 18207,10198 18262,10269 18338,10335 L 18261,10440 C 18187,10382 18131,10322 18094,10258 18056,10195 18029,10129 18013,10061 17997,9992 17989,9926 17987,9862 L 17963,9862 17922,10238 C 17941,10224 17970,10208 18008,10188 L 18059,10300 C 18007,10331 17957,10358 17907,10379 17858,10401 17803,10420 17742,10437 Z M 17673,9375 L 17599,10076 C 17614,10074 17629,10063 17644,10043 17660,10023 17670,9996 17676,9963 17681,9930 17681,9894 17673,9853 17666,9812 17651,9769 17629,9724 L 17743,9375 17673,9375 Z M 18000,9493 L 18212,9493 18225,9385 18013,9385 18000,9493 Z M 17975,9732 L 18187,9732 18200,9620 17988,9620 17975,9732 Z "/>
         </g>
        </g>
       </g>
      </g>
     </g>
    </g>
   </g>
  </g>
 </g>
</svg>